<mxfile host="app.diagrams.net" modified="2023-11-06T14:34:05.217Z" agent="Mozilla/5.0 (Windows NT 10.0; Win64; x64; rv:109.0) Gecko/20100101 Firefox/116.0" etag="He65nz3_6Yj1ZCw1hsr8" version="22.0.8" type="github">
  <diagram id="C5RBs43oDa-KdzZeNtuy" name="Page-1">
    <mxGraphModel dx="880" dy="463" grid="1" gridSize="10" guides="1" tooltips="1" connect="1" arrows="1" fold="1" page="1" pageScale="1" pageWidth="827" pageHeight="1169" math="0" shadow="0">
      <root>
        <mxCell id="WIyWlLk6GJQsqaUBKTNV-0" />
        <mxCell id="WIyWlLk6GJQsqaUBKTNV-1" parent="WIyWlLk6GJQsqaUBKTNV-0" />
        <mxCell id="81mZJQsFJA5Lz2_ic_iU-2" style="edgeStyle=orthogonalEdgeStyle;rounded=0;orthogonalLoop=1;jettySize=auto;html=1;entryX=0.5;entryY=0;entryDx=0;entryDy=0;" edge="1" parent="WIyWlLk6GJQsqaUBKTNV-1" source="81mZJQsFJA5Lz2_ic_iU-0" target="81mZJQsFJA5Lz2_ic_iU-1">
          <mxGeometry relative="1" as="geometry" />
        </mxCell>
        <mxCell id="81mZJQsFJA5Lz2_ic_iU-0" value="Start" style="ellipse;whiteSpace=wrap;html=1;" vertex="1" parent="WIyWlLk6GJQsqaUBKTNV-1">
          <mxGeometry x="330" y="100" width="120" height="80" as="geometry" />
        </mxCell>
        <mxCell id="81mZJQsFJA5Lz2_ic_iU-4" style="edgeStyle=orthogonalEdgeStyle;rounded=0;orthogonalLoop=1;jettySize=auto;html=1;entryX=0.5;entryY=0;entryDx=0;entryDy=0;" edge="1" parent="WIyWlLk6GJQsqaUBKTNV-1" source="81mZJQsFJA5Lz2_ic_iU-1" target="81mZJQsFJA5Lz2_ic_iU-3">
          <mxGeometry relative="1" as="geometry" />
        </mxCell>
        <mxCell id="81mZJQsFJA5Lz2_ic_iU-1" value="a,b,c" style="shape=parallelogram;perimeter=parallelogramPerimeter;whiteSpace=wrap;html=1;fixedSize=1;" vertex="1" parent="WIyWlLk6GJQsqaUBKTNV-1">
          <mxGeometry x="310" y="240" width="170" height="80" as="geometry" />
        </mxCell>
        <mxCell id="81mZJQsFJA5Lz2_ic_iU-6" style="edgeStyle=orthogonalEdgeStyle;rounded=0;orthogonalLoop=1;jettySize=auto;html=1;entryX=0.5;entryY=0;entryDx=0;entryDy=0;" edge="1" parent="WIyWlLk6GJQsqaUBKTNV-1" source="81mZJQsFJA5Lz2_ic_iU-3" target="81mZJQsFJA5Lz2_ic_iU-5">
          <mxGeometry relative="1" as="geometry" />
        </mxCell>
        <mxCell id="81mZJQsFJA5Lz2_ic_iU-3" value="min=a" style="shape=parallelogram;perimeter=parallelogramPerimeter;whiteSpace=wrap;html=1;fixedSize=1;" vertex="1" parent="WIyWlLk6GJQsqaUBKTNV-1">
          <mxGeometry x="330" y="410" width="120" height="60" as="geometry" />
        </mxCell>
        <mxCell id="81mZJQsFJA5Lz2_ic_iU-9" value="đúng" style="edgeStyle=orthogonalEdgeStyle;rounded=0;orthogonalLoop=1;jettySize=auto;html=1;entryX=0.5;entryY=0;entryDx=0;entryDy=0;" edge="1" parent="WIyWlLk6GJQsqaUBKTNV-1" source="81mZJQsFJA5Lz2_ic_iU-5" target="81mZJQsFJA5Lz2_ic_iU-8">
          <mxGeometry relative="1" as="geometry" />
        </mxCell>
        <mxCell id="81mZJQsFJA5Lz2_ic_iU-14" value="sai" style="edgeStyle=orthogonalEdgeStyle;rounded=0;orthogonalLoop=1;jettySize=auto;html=1;entryX=1;entryY=0.5;entryDx=0;entryDy=0;" edge="1" parent="WIyWlLk6GJQsqaUBKTNV-1" source="81mZJQsFJA5Lz2_ic_iU-5" target="81mZJQsFJA5Lz2_ic_iU-11">
          <mxGeometry relative="1" as="geometry">
            <Array as="points">
              <mxPoint x="560" y="600" />
              <mxPoint x="560" y="845" />
            </Array>
          </mxGeometry>
        </mxCell>
        <mxCell id="81mZJQsFJA5Lz2_ic_iU-5" value="min &amp;gt;b" style="rhombus;whiteSpace=wrap;html=1;" vertex="1" parent="WIyWlLk6GJQsqaUBKTNV-1">
          <mxGeometry x="330" y="530" width="120" height="80" as="geometry" />
        </mxCell>
        <mxCell id="81mZJQsFJA5Lz2_ic_iU-10" style="edgeStyle=orthogonalEdgeStyle;rounded=0;orthogonalLoop=1;jettySize=auto;html=1;" edge="1" parent="WIyWlLk6GJQsqaUBKTNV-1" source="81mZJQsFJA5Lz2_ic_iU-8" target="81mZJQsFJA5Lz2_ic_iU-11">
          <mxGeometry relative="1" as="geometry">
            <mxPoint x="390" y="840" as="targetPoint" />
          </mxGeometry>
        </mxCell>
        <mxCell id="81mZJQsFJA5Lz2_ic_iU-8" value="min=b" style="rounded=0;whiteSpace=wrap;html=1;" vertex="1" parent="WIyWlLk6GJQsqaUBKTNV-1">
          <mxGeometry x="330" y="680" width="120" height="60" as="geometry" />
        </mxCell>
        <mxCell id="81mZJQsFJA5Lz2_ic_iU-11" value="min&amp;gt;c" style="rhombus;whiteSpace=wrap;html=1;" vertex="1" parent="WIyWlLk6GJQsqaUBKTNV-1">
          <mxGeometry x="350" y="810" width="80" height="70" as="geometry" />
        </mxCell>
        <mxCell id="81mZJQsFJA5Lz2_ic_iU-12" value="min=c" style="rounded=0;whiteSpace=wrap;html=1;" vertex="1" parent="WIyWlLk6GJQsqaUBKTNV-1">
          <mxGeometry x="335" y="960" width="120" height="60" as="geometry" />
        </mxCell>
        <mxCell id="81mZJQsFJA5Lz2_ic_iU-13" value="đúng" style="edgeStyle=orthogonalEdgeStyle;rounded=0;orthogonalLoop=1;jettySize=auto;html=1;entryX=0.45;entryY=-0.017;entryDx=0;entryDy=0;entryPerimeter=0;" edge="1" parent="WIyWlLk6GJQsqaUBKTNV-1" source="81mZJQsFJA5Lz2_ic_iU-11" target="81mZJQsFJA5Lz2_ic_iU-12">
          <mxGeometry relative="1" as="geometry" />
        </mxCell>
        <mxCell id="81mZJQsFJA5Lz2_ic_iU-15" value="in ra kết quả là min&amp;nbsp; và kết thúc" style="ellipse;whiteSpace=wrap;html=1;" vertex="1" parent="WIyWlLk6GJQsqaUBKTNV-1">
          <mxGeometry x="320" y="1100" width="150" height="90" as="geometry" />
        </mxCell>
        <mxCell id="81mZJQsFJA5Lz2_ic_iU-16" style="edgeStyle=orthogonalEdgeStyle;rounded=0;orthogonalLoop=1;jettySize=auto;html=1;entryX=0.45;entryY=-0.012;entryDx=0;entryDy=0;entryPerimeter=0;" edge="1" parent="WIyWlLk6GJQsqaUBKTNV-1" source="81mZJQsFJA5Lz2_ic_iU-12" target="81mZJQsFJA5Lz2_ic_iU-15">
          <mxGeometry relative="1" as="geometry" />
        </mxCell>
        <mxCell id="81mZJQsFJA5Lz2_ic_iU-17" value="sai" style="edgeStyle=orthogonalEdgeStyle;rounded=0;orthogonalLoop=1;jettySize=auto;html=1;entryX=-0.007;entryY=0.322;entryDx=0;entryDy=0;entryPerimeter=0;" edge="1" parent="WIyWlLk6GJQsqaUBKTNV-1" source="81mZJQsFJA5Lz2_ic_iU-11" target="81mZJQsFJA5Lz2_ic_iU-15">
          <mxGeometry relative="1" as="geometry">
            <Array as="points">
              <mxPoint x="260" y="845" />
              <mxPoint x="260" y="990" />
              <mxPoint x="300" y="990" />
              <mxPoint x="300" y="1129" />
            </Array>
          </mxGeometry>
        </mxCell>
      </root>
    </mxGraphModel>
  </diagram>
</mxfile>
